<svg width="39" height="39" viewBox="0 0 39 39" fill="none" xmlns="http://www.w3.org/2000/svg">
<g filter="url(#filter0_d_0_8625)">
<path d="M13.0973 17.8989L12.2967 20.8876L9.37052 20.9495C8.49603 19.3275 8 17.4717 8 15.4997C8 13.5927 8.46377 11.7944 9.28584 10.2109H9.28647L11.8916 10.6885L13.0328 13.278C12.7939 13.9744 12.6637 14.7219 12.6637 15.4997C12.6638 16.3439 12.8167 17.1527 13.0973 17.8989Z" fill="#FBBB00"/>
</g>
<g filter="url(#filter1_d_0_8625)">
<path d="M30.8002 13.3516C30.9322 14.0472 31.0011 14.7657 31.0011 15.4999C31.0011 16.3232 30.9145 17.1263 30.7496 17.901C30.1898 20.5372 28.727 22.8391 26.7006 24.468L26.7 24.4674L23.4187 24.3L22.9543 21.4009C24.2989 20.6124 25.3497 19.3783 25.9033 17.901H19.7539V13.3516H25.993H30.8002Z" fill="#518EF8"/>
</g>
<g filter="url(#filter2_d_0_8625)">
<path d="M26.6994 24.4667L26.7001 24.4673C24.7293 26.0514 22.2258 26.9992 19.5006 26.9992C15.1211 26.9992 11.3135 24.5514 9.37109 20.9491L13.0979 17.8984C14.069 20.4903 16.5693 22.3354 19.5006 22.3354C20.7605 22.3354 21.9409 21.9948 22.9537 21.4002L26.6994 24.4667Z" fill="#28B446"/>
</g>
<g filter="url(#filter3_d_0_8625)">
<path d="M26.8397 6.64752L23.1142 9.69753C22.066 9.0423 20.8268 8.66379 19.4993 8.66379C16.5017 8.66379 13.9547 10.5935 13.0321 13.2783L9.28579 10.2113H9.28516C11.1991 6.52115 15.0547 4 19.4993 4C22.2896 4 24.8481 4.99394 26.8397 6.64752Z" fill="#F14336"/>
</g>
<defs>
<filter id="filter0_d_0_8625" x="0" y="6.21094" width="21.0977" height="26.7383" filterUnits="userSpaceOnUse" color-interpolation-filters="sRGB">
<feFlood flood-opacity="0" result="BackgroundImageFix"/>
<feColorMatrix in="SourceAlpha" type="matrix" values="0 0 0 0 0 0 0 0 0 0 0 0 0 0 0 0 0 0 127 0" result="hardAlpha"/>
<feOffset dy="4"/>
<feGaussianBlur stdDeviation="4"/>
<feColorMatrix type="matrix" values="0 0 0 0 0.984314 0 0 0 0 0.733333 0 0 0 0 0 0 0 0 0.12 0"/>
<feBlend mode="normal" in2="BackgroundImageFix" result="effect1_dropShadow_0_8625"/>
<feBlend mode="normal" in="SourceGraphic" in2="effect1_dropShadow_0_8625" result="shape"/>
</filter>
<filter id="filter1_d_0_8625" x="11.7539" y="9.35156" width="27.2461" height="27.1172" filterUnits="userSpaceOnUse" color-interpolation-filters="sRGB">
<feFlood flood-opacity="0" result="BackgroundImageFix"/>
<feColorMatrix in="SourceAlpha" type="matrix" values="0 0 0 0 0 0 0 0 0 0 0 0 0 0 0 0 0 0 127 0" result="hardAlpha"/>
<feOffset dy="4"/>
<feGaussianBlur stdDeviation="4"/>
<feColorMatrix type="matrix" values="0 0 0 0 0.317647 0 0 0 0 0.556863 0 0 0 0 0.972549 0 0 0 0.12 0"/>
<feBlend mode="normal" in2="BackgroundImageFix" result="effect1_dropShadow_0_8625"/>
<feBlend mode="normal" in="SourceGraphic" in2="effect1_dropShadow_0_8625" result="shape"/>
</filter>
<filter id="filter2_d_0_8625" x="1.37109" y="13.8984" width="33.3281" height="25.1016" filterUnits="userSpaceOnUse" color-interpolation-filters="sRGB">
<feFlood flood-opacity="0" result="BackgroundImageFix"/>
<feColorMatrix in="SourceAlpha" type="matrix" values="0 0 0 0 0 0 0 0 0 0 0 0 0 0 0 0 0 0 127 0" result="hardAlpha"/>
<feOffset dy="4"/>
<feGaussianBlur stdDeviation="4"/>
<feColorMatrix type="matrix" values="0 0 0 0 0.156863 0 0 0 0 0.705882 0 0 0 0 0.27451 0 0 0 0.12 0"/>
<feBlend mode="normal" in2="BackgroundImageFix" result="effect1_dropShadow_0_8625"/>
<feBlend mode="normal" in="SourceGraphic" in2="effect1_dropShadow_0_8625" result="shape"/>
</filter>
<filter id="filter3_d_0_8625" x="1.28516" y="0" width="33.5547" height="25.2793" filterUnits="userSpaceOnUse" color-interpolation-filters="sRGB">
<feFlood flood-opacity="0" result="BackgroundImageFix"/>
<feColorMatrix in="SourceAlpha" type="matrix" values="0 0 0 0 0 0 0 0 0 0 0 0 0 0 0 0 0 0 127 0" result="hardAlpha"/>
<feOffset dy="4"/>
<feGaussianBlur stdDeviation="4"/>
<feColorMatrix type="matrix" values="0 0 0 0 0.945098 0 0 0 0 0.262745 0 0 0 0 0.211765 0 0 0 0.12 0"/>
<feBlend mode="normal" in2="BackgroundImageFix" result="effect1_dropShadow_0_8625"/>
<feBlend mode="normal" in="SourceGraphic" in2="effect1_dropShadow_0_8625" result="shape"/>
</filter>
</defs>
</svg>
